<mxfile host="app.diagrams.net" modified="2023-11-22T11:47:21.158Z" agent="Mozilla/5.0 (Windows NT 10.0; Win64; x64) AppleWebKit/537.36 (KHTML, like Gecko) Chrome/119.0.0.0 Safari/537.36" etag="CGealZf-kESoAOCjN7xn" version="22.1.3" type="github">
  <diagram name="Travel And Dine - Banco de Dados" id="l2abdUlIpdZk-L6hSmc2">
    <mxGraphModel dx="17600" dy="11900" grid="1" gridSize="10" guides="1" tooltips="1" connect="1" arrows="1" fold="1" page="1" pageScale="1" pageWidth="6000" pageHeight="4500" math="0" shadow="0">
      <root>
        <mxCell id="0" />
        <mxCell id="1" parent="0" />
        <mxCell id="otfIkombBEl5gzPAVcly-38" value="" style="rounded=1;whiteSpace=wrap;html=1;arcSize=0;" vertex="1" parent="1">
          <mxGeometry x="1300" y="120" width="1600" height="4210" as="geometry" />
        </mxCell>
        <mxCell id="otfIkombBEl5gzPAVcly-69" value="" style="rounded=0;whiteSpace=wrap;html=1;dashed=1;" vertex="1" parent="1">
          <mxGeometry x="1360" y="590" width="1390" height="1930" as="geometry" />
        </mxCell>
        <mxCell id="otfIkombBEl5gzPAVcly-1" value="" style="shape=cylinder3;whiteSpace=wrap;html=1;boundedLbl=1;backgroundOutline=1;size=130;" vertex="1" parent="1">
          <mxGeometry x="3240" y="150" width="2080" height="2340" as="geometry" />
        </mxCell>
        <mxCell id="otfIkombBEl5gzPAVcly-2" value="&lt;span style=&quot;font-size: 83px;&quot;&gt;&lt;b style=&quot;font-size: 83px;&quot;&gt;MongoDb &lt;br&gt;Banco de Dados&amp;nbsp;&lt;/b&gt;&lt;/span&gt;" style="text;html=1;strokeColor=none;fillColor=none;align=center;verticalAlign=middle;whiteSpace=wrap;rounded=0;fontSize=83;" vertex="1" parent="1">
          <mxGeometry x="3665" y="170" width="1300" height="200" as="geometry" />
        </mxCell>
        <mxCell id="otfIkombBEl5gzPAVcly-12" style="edgeStyle=orthogonalEdgeStyle;rounded=0;orthogonalLoop=1;jettySize=auto;html=1;" edge="1" parent="1" source="otfIkombBEl5gzPAVcly-4" target="otfIkombBEl5gzPAVcly-10">
          <mxGeometry relative="1" as="geometry" />
        </mxCell>
        <mxCell id="otfIkombBEl5gzPAVcly-44" style="edgeStyle=orthogonalEdgeStyle;rounded=0;orthogonalLoop=1;jettySize=auto;html=1;entryX=1;entryY=0.5;entryDx=0;entryDy=0;" edge="1" parent="1" source="otfIkombBEl5gzPAVcly-4" target="otfIkombBEl5gzPAVcly-43">
          <mxGeometry relative="1" as="geometry" />
        </mxCell>
        <mxCell id="otfIkombBEl5gzPAVcly-4" value="collection:&lt;br style=&quot;font-size: 37px;&quot;&gt;lugares_para_sair" style="shape=cylinder3;whiteSpace=wrap;html=1;boundedLbl=1;backgroundOutline=1;size=53.666666666666686;fontSize=37;fontStyle=1" vertex="1" parent="1">
          <mxGeometry x="3340" y="740" width="370" height="260" as="geometry" />
        </mxCell>
        <mxCell id="otfIkombBEl5gzPAVcly-19" style="edgeStyle=orthogonalEdgeStyle;rounded=0;orthogonalLoop=1;jettySize=auto;html=1;" edge="1" parent="1" source="otfIkombBEl5gzPAVcly-5" target="otfIkombBEl5gzPAVcly-18">
          <mxGeometry relative="1" as="geometry" />
        </mxCell>
        <mxCell id="otfIkombBEl5gzPAVcly-58" style="edgeStyle=orthogonalEdgeStyle;rounded=0;orthogonalLoop=1;jettySize=auto;html=1;entryX=1;entryY=0.5;entryDx=0;entryDy=0;" edge="1" parent="1" source="otfIkombBEl5gzPAVcly-5" target="otfIkombBEl5gzPAVcly-53">
          <mxGeometry relative="1" as="geometry" />
        </mxCell>
        <mxCell id="otfIkombBEl5gzPAVcly-5" value="collection:&lt;br style=&quot;border-color: var(--border-color);&quot;&gt;ctlg_opcoes_sair" style="shape=cylinder3;whiteSpace=wrap;html=1;boundedLbl=1;backgroundOutline=1;size=53.666666666666686;fontSize=37;fontStyle=1" vertex="1" parent="1">
          <mxGeometry x="3350" y="1402.5" width="370" height="260" as="geometry" />
        </mxCell>
        <mxCell id="otfIkombBEl5gzPAVcly-28" value="" style="edgeStyle=orthogonalEdgeStyle;rounded=0;orthogonalLoop=1;jettySize=auto;html=1;" edge="1" parent="1" source="otfIkombBEl5gzPAVcly-8" target="otfIkombBEl5gzPAVcly-27">
          <mxGeometry relative="1" as="geometry" />
        </mxCell>
        <mxCell id="otfIkombBEl5gzPAVcly-68" style="edgeStyle=orthogonalEdgeStyle;rounded=0;orthogonalLoop=1;jettySize=auto;html=1;entryX=1;entryY=0.5;entryDx=0;entryDy=0;" edge="1" parent="1" source="otfIkombBEl5gzPAVcly-8" target="otfIkombBEl5gzPAVcly-63">
          <mxGeometry relative="1" as="geometry" />
        </mxCell>
        <mxCell id="otfIkombBEl5gzPAVcly-8" value="collection:&lt;br style=&quot;font-size: 37px;&quot;&gt;fotos_lugares_sair" style="shape=cylinder3;whiteSpace=wrap;html=1;boundedLbl=1;backgroundOutline=1;size=53.666666666666686;fontSize=37;fontStyle=1" vertex="1" parent="1">
          <mxGeometry x="3342.13" y="1985" width="370" height="260" as="geometry" />
        </mxCell>
        <mxCell id="otfIkombBEl5gzPAVcly-24" style="edgeStyle=orthogonalEdgeStyle;rounded=0;orthogonalLoop=1;jettySize=auto;html=1;entryX=0;entryY=0.5;entryDx=0;entryDy=0;" edge="1" parent="1" source="otfIkombBEl5gzPAVcly-10" target="otfIkombBEl5gzPAVcly-23">
          <mxGeometry relative="1" as="geometry" />
        </mxCell>
        <mxCell id="otfIkombBEl5gzPAVcly-10" value="" style="dashed=0;outlineConnect=0;html=1;align=center;labelPosition=center;verticalLabelPosition=bottom;verticalAlign=top;shape=mxgraph.webicons.json;gradientColor=none;fillColor=none;" vertex="1" parent="1">
          <mxGeometry x="3810" y="795" width="140.13" height="150" as="geometry" />
        </mxCell>
        <mxCell id="otfIkombBEl5gzPAVcly-22" style="edgeStyle=orthogonalEdgeStyle;rounded=0;orthogonalLoop=1;jettySize=auto;html=1;" edge="1" parent="1" source="otfIkombBEl5gzPAVcly-18" target="otfIkombBEl5gzPAVcly-21">
          <mxGeometry relative="1" as="geometry" />
        </mxCell>
        <mxCell id="otfIkombBEl5gzPAVcly-18" value="" style="dashed=0;outlineConnect=0;html=1;align=center;labelPosition=center;verticalLabelPosition=bottom;verticalAlign=top;shape=mxgraph.webicons.json;gradientColor=none;fillColor=none;" vertex="1" parent="1">
          <mxGeometry x="3810" y="1457.5" width="140.13" height="150" as="geometry" />
        </mxCell>
        <mxCell id="otfIkombBEl5gzPAVcly-21" value="&lt;div style=&quot;color: rgb(204, 204, 204); background-color: rgb(31, 31, 31); font-family: Consolas, &amp;quot;Courier New&amp;quot;, monospace; font-weight: normal; font-size: 14px; line-height: 19px;&quot;&gt;&lt;div&gt;&lt;span style=&quot;color: #4fc1ff;&quot;&gt;OPCOES_DESCRICAO&lt;/span&gt;&lt;span style=&quot;color: #cccccc;&quot;&gt; &lt;/span&gt;&lt;span style=&quot;color: #d4d4d4;&quot;&gt;=&lt;/span&gt;&lt;span style=&quot;color: #cccccc;&quot;&gt; {&lt;/span&gt;&lt;/div&gt;&lt;div&gt;&lt;span style=&quot;color: #cccccc;&quot;&gt;&amp;nbsp; &amp;nbsp; &amp;nbsp; &lt;/span&gt;&lt;span style=&quot;color: #ce9178;&quot;&gt;&quot;opcoes_cidades&quot;&lt;/span&gt;&lt;span style=&quot;color: #cccccc;&quot;&gt; : &amp;nbsp; &amp;nbsp; &amp;nbsp; &amp;nbsp; &amp;nbsp; &amp;nbsp;&lt;/span&gt;&lt;span style=&quot;color: #ce9178;&quot;&gt;&quot;Lista com todas opções de cidades&quot;&lt;/span&gt;&lt;span style=&quot;color: #cccccc;&quot;&gt;,&lt;/span&gt;&lt;/div&gt;&lt;div&gt;&lt;span style=&quot;color: #cccccc;&quot;&gt;&amp;nbsp; &amp;nbsp; &amp;nbsp; &lt;/span&gt;&lt;span style=&quot;color: #ce9178;&quot;&gt;&quot;opcoes_bairro&quot;&lt;/span&gt;&lt;span style=&quot;color: #cccccc;&quot;&gt; : &amp;nbsp; &amp;nbsp; &amp;nbsp; &amp;nbsp; &amp;nbsp; &amp;nbsp; &lt;/span&gt;&lt;span style=&quot;color: #ce9178;&quot;&gt;&quot;Lista com todas opções de bairro ( e qnd tiver mais de 1 cidade??)&quot;&lt;/span&gt;&lt;span style=&quot;color: #cccccc;&quot;&gt;,&lt;/span&gt;&lt;/div&gt;&lt;div&gt;&lt;span style=&quot;color: #cccccc;&quot;&gt;&amp;nbsp; &amp;nbsp; &amp;nbsp; &lt;/span&gt;&lt;span style=&quot;color: #ce9178;&quot;&gt;&quot;opcoes_regiao&quot;&lt;/span&gt;&lt;span style=&quot;color: #cccccc;&quot;&gt; : &amp;nbsp; &amp;nbsp; &amp;nbsp; &amp;nbsp; &amp;nbsp; &amp;nbsp; &lt;/span&gt;&lt;span style=&quot;color: #ce9178;&quot;&gt;&quot;Lista com todas opções de regiões ( e qnd tiver mais de 1 cidade??)&quot;&lt;/span&gt;&lt;span style=&quot;color: #cccccc;&quot;&gt;,&lt;/span&gt;&lt;/div&gt;&lt;div&gt;&lt;span style=&quot;color: #cccccc;&quot;&gt;&amp;nbsp; &amp;nbsp; &amp;nbsp; &lt;/span&gt;&lt;span style=&quot;color: #ce9178;&quot;&gt;&quot;opcoes_entrada&quot;&lt;/span&gt;&lt;span style=&quot;color: #cccccc;&quot;&gt; : &amp;nbsp; &amp;nbsp; &amp;nbsp; &amp;nbsp; &amp;nbsp; &amp;nbsp;&lt;/span&gt;&lt;span style=&quot;color: #ce9178;&quot;&gt;&quot;Lista com os valores possíveis para entrada&quot;&lt;/span&gt;&lt;span style=&quot;color: #cccccc;&quot;&gt;,&lt;/span&gt;&lt;/div&gt;&lt;div&gt;&lt;span style=&quot;color: #cccccc;&quot;&gt;&amp;nbsp; &amp;nbsp; &amp;nbsp; &lt;/span&gt;&lt;span style=&quot;color: #ce9178;&quot;&gt;&quot;opcoes_estacao&quot;&lt;/span&gt;&lt;span style=&quot;color: #cccccc;&quot;&gt; : &amp;nbsp; &amp;nbsp; &amp;nbsp; &amp;nbsp; &amp;nbsp; &amp;nbsp;&lt;/span&gt;&lt;span style=&quot;color: #ce9178;&quot;&gt;&quot;Lista com todas as estacoes possiveis ( e qnd tiver mais de 1 cidade ??)&quot;&lt;/span&gt;&lt;span style=&quot;color: #cccccc;&quot;&gt;,&lt;/span&gt;&lt;/div&gt;&lt;div&gt;&lt;span style=&quot;color: #cccccc;&quot;&gt;&amp;nbsp; &amp;nbsp; &amp;nbsp; &lt;/span&gt;&lt;span style=&quot;color: #ce9178;&quot;&gt;&quot;opcoes_estrelas&quot;&lt;/span&gt;&lt;span style=&quot;color: #cccccc;&quot;&gt; : &amp;nbsp; &amp;nbsp; &amp;nbsp; &amp;nbsp; &amp;nbsp; &lt;/span&gt;&lt;span style=&quot;color: #ce9178;&quot;&gt;&quot;Lista com todas estrelas possiveis [1 à 5]&quot;&lt;/span&gt;&lt;span style=&quot;color: #cccccc;&quot;&gt;,&lt;/span&gt;&lt;/div&gt;&lt;div&gt;&lt;span style=&quot;color: #cccccc;&quot;&gt;&amp;nbsp; &amp;nbsp; &amp;nbsp; &lt;/span&gt;&lt;span style=&quot;color: #ce9178;&quot;&gt;&quot;opcoes_avaliacao&quot;&lt;/span&gt;&lt;span style=&quot;color: #cccccc;&quot;&gt; : &amp;nbsp; &amp;nbsp; &amp;nbsp; &amp;nbsp; &amp;nbsp;&lt;/span&gt;&lt;span style=&quot;color: #ce9178;&quot;&gt;&quot;Lista com todas avaliacoes possiveis [1 à 5]&quot;&lt;/span&gt;&lt;span style=&quot;color: #cccccc;&quot;&gt;,&lt;/span&gt;&lt;/div&gt;&lt;div&gt;&lt;span style=&quot;color: #cccccc;&quot;&gt;&amp;nbsp; &amp;nbsp; &amp;nbsp; &lt;/span&gt;&lt;span style=&quot;color: #ce9178;&quot;&gt;&quot;opcoes_acessibilidade&quot;&lt;/span&gt;&lt;span style=&quot;color: #cccccc;&quot;&gt; : &amp;nbsp; &amp;nbsp; &lt;/span&gt;&lt;span style=&quot;color: #ce9178;&quot;&gt;&quot;Lista com todas as opções de acessibilidade&quot;&lt;/span&gt;&lt;span style=&quot;color: #cccccc;&quot;&gt;,&lt;/span&gt;&lt;/div&gt;&lt;div&gt;&lt;span style=&quot;color: #cccccc;&quot;&gt;&amp;nbsp; &amp;nbsp; &amp;nbsp; &lt;/span&gt;&lt;span style=&quot;color: #ce9178;&quot;&gt;&quot;opcoes_musica&quot;&lt;/span&gt;&lt;span style=&quot;color: #cccccc;&quot;&gt; : &amp;nbsp; &amp;nbsp; &amp;nbsp; &amp;nbsp; &amp;nbsp; &amp;nbsp; &lt;/span&gt;&lt;span style=&quot;color: #ce9178;&quot;&gt;&quot;Lista com todas as opções de música&quot;&lt;/span&gt;&lt;span style=&quot;color: #cccccc;&quot;&gt;,&lt;/span&gt;&lt;/div&gt;&lt;div&gt;&lt;span style=&quot;color: #cccccc;&quot;&gt;&amp;nbsp; &amp;nbsp; &amp;nbsp; &lt;/span&gt;&lt;span style=&quot;color: #ce9178;&quot;&gt;&quot;opcoes_estacionamento&quot;&lt;/span&gt;&lt;span style=&quot;color: #cccccc;&quot;&gt; : &amp;nbsp; &amp;nbsp; &lt;/span&gt;&lt;span style=&quot;color: #ce9178;&quot;&gt;&quot;Lista com todas as opcoes de estacionamento&quot;&lt;/span&gt;&lt;span style=&quot;color: #cccccc;&quot;&gt;,&lt;/span&gt;&lt;/div&gt;&lt;div&gt;&lt;span style=&quot;color: #cccccc;&quot;&gt;&amp;nbsp; &amp;nbsp; &amp;nbsp; &lt;/span&gt;&lt;span style=&quot;color: #ce9178;&quot;&gt;&quot;opcoes_cover&quot;&lt;/span&gt;&lt;span style=&quot;color: #cccccc;&quot;&gt; : &amp;nbsp; &amp;nbsp; &amp;nbsp; &amp;nbsp; &amp;nbsp; &amp;nbsp; &amp;nbsp;&lt;/span&gt;&lt;span style=&quot;color: #ce9178;&quot;&gt;&quot;Lista com todas as opções de taxa de cover&quot;&lt;/span&gt;&lt;span style=&quot;color: #cccccc;&quot;&gt;,&lt;/span&gt;&lt;/div&gt;&lt;div&gt;&lt;span style=&quot;color: #cccccc;&quot;&gt;&amp;nbsp; &amp;nbsp; &amp;nbsp; &lt;/span&gt;&lt;span style=&quot;color: #ce9178;&quot;&gt;&quot;opcoes_kids&quot;&lt;/span&gt;&lt;span style=&quot;color: #cccccc;&quot;&gt; : &amp;nbsp; &amp;nbsp; &amp;nbsp; &amp;nbsp; &amp;nbsp; &amp;nbsp; &amp;nbsp; &lt;/span&gt;&lt;span style=&quot;color: #ce9178;&quot;&gt;&quot;Lista com todas as opções de espaços kids&quot;&lt;/span&gt;&lt;span style=&quot;color: #cccccc;&quot;&gt;,&lt;/span&gt;&lt;/div&gt;&lt;div&gt;&lt;span style=&quot;color: #cccccc;&quot;&gt;&amp;nbsp; &amp;nbsp; &amp;nbsp; &lt;/span&gt;&lt;span style=&quot;color: #ce9178;&quot;&gt;&quot;opcoes_musical&quot;&lt;/span&gt;&lt;span style=&quot;color: #cccccc;&quot;&gt; : &amp;nbsp; &amp;nbsp; &amp;nbsp; &amp;nbsp; &amp;nbsp; &amp;nbsp;&lt;/span&gt;&lt;span style=&quot;color: #ce9178;&quot;&gt;&quot;Lista com todos os estilos musicais possíveis&quot;&lt;/span&gt;&lt;span style=&quot;color: #cccccc;&quot;&gt;,&lt;/span&gt;&lt;/div&gt;&lt;div&gt;&lt;span style=&quot;color: #cccccc;&quot;&gt;&amp;nbsp; &amp;nbsp; &amp;nbsp; &lt;/span&gt;&lt;span style=&quot;color: #ce9178;&quot;&gt;&quot;opcoes_cozinha&quot;&lt;/span&gt;&lt;span style=&quot;color: #cccccc;&quot;&gt; : &amp;nbsp; &amp;nbsp; &amp;nbsp; &amp;nbsp; &amp;nbsp; &amp;nbsp;&lt;/span&gt;&lt;span style=&quot;color: #ce9178;&quot;&gt;&quot;Lista com todos os as culinárias possíveis&quot;&lt;/span&gt;&lt;span style=&quot;color: #cccccc;&quot;&gt;,&lt;/span&gt;&lt;/div&gt;&lt;div&gt;&lt;span style=&quot;color: #cccccc;&quot;&gt;&amp;nbsp; &amp;nbsp; &amp;nbsp; &lt;/span&gt;&lt;span style=&quot;color: #ce9178;&quot;&gt;&quot;opcoes_local&quot;&lt;/span&gt;&lt;span style=&quot;color: #cccccc;&quot;&gt; : &amp;nbsp; &amp;nbsp; &amp;nbsp; &amp;nbsp; &amp;nbsp; &amp;nbsp; &amp;nbsp;&lt;/span&gt;&lt;span style=&quot;color: #ce9178;&quot;&gt;&quot;Lista com todos os tipos de locais possíveis&quot;&lt;/span&gt;&lt;span style=&quot;color: #cccccc;&quot;&gt;,&lt;/span&gt;&lt;/div&gt;&lt;div&gt;&lt;span style=&quot;color: #cccccc;&quot;&gt;&amp;nbsp; &amp;nbsp; &amp;nbsp; &lt;/span&gt;&lt;span style=&quot;color: #ce9178;&quot;&gt;&quot;opcoes_preco&quot;&lt;/span&gt;&lt;span style=&quot;color: #cccccc;&quot;&gt; : &amp;nbsp; &amp;nbsp; &amp;nbsp; &amp;nbsp; &amp;nbsp; &amp;nbsp; &amp;nbsp;&lt;/span&gt;&lt;span style=&quot;color: #ce9178;&quot;&gt;&quot;Lista com todos os preços possíveis [1 à 5]&quot;&lt;/span&gt;&lt;span style=&quot;color: #cccccc;&quot;&gt;,&lt;/span&gt;&lt;/div&gt;&lt;div&gt;&lt;span style=&quot;color: #cccccc;&quot;&gt;&amp;nbsp; &amp;nbsp; &amp;nbsp; &lt;/span&gt;&lt;span style=&quot;color: #ce9178;&quot;&gt;&quot;opcoes_tipo_evento&quot;&lt;/span&gt;&lt;span style=&quot;color: #cccccc;&quot;&gt; : &amp;nbsp; &amp;nbsp; &amp;nbsp; &amp;nbsp;&lt;/span&gt;&lt;span style=&quot;color: #ce9178;&quot;&gt;&quot;Lista com todos os tipos de evento possíveis&quot;&lt;/span&gt;&lt;span style=&quot;color: #cccccc;&quot;&gt;,&lt;/span&gt;&lt;/div&gt;&lt;div&gt;&lt;span style=&quot;color: #cccccc;&quot;&gt;&amp;nbsp; &amp;nbsp; &amp;nbsp; &lt;/span&gt;&lt;span style=&quot;color: #ce9178;&quot;&gt;&quot;opcoes_hobby&quot;&lt;/span&gt;&lt;span style=&quot;color: #cccccc;&quot;&gt; : &amp;nbsp; &amp;nbsp; &amp;nbsp; &amp;nbsp; &amp;nbsp; &amp;nbsp; &amp;nbsp;&lt;/span&gt;&lt;span style=&quot;color: #ce9178;&quot;&gt;&quot;Lista com todas as opções de hobby possiveis&quot;&lt;/span&gt;&lt;span style=&quot;color: #cccccc;&quot;&gt;,&lt;/span&gt;&lt;/div&gt;&lt;div&gt;&lt;span style=&quot;color: #cccccc;&quot;&gt;&amp;nbsp; &amp;nbsp; &amp;nbsp; &lt;/span&gt;&lt;span style=&quot;color: #ce9178;&quot;&gt;&quot;opcoes_ambiente&quot;&lt;/span&gt;&lt;span style=&quot;color: #cccccc;&quot;&gt; : &amp;nbsp; &amp;nbsp; &amp;nbsp; &amp;nbsp; &amp;nbsp; &lt;/span&gt;&lt;span style=&quot;color: #ce9178;&quot;&gt;&quot;Lista com todos os ambientes possíveis&quot;&lt;/span&gt;&lt;span style=&quot;color: #cccccc;&quot;&gt;,&lt;/span&gt;&lt;/div&gt;&lt;div&gt;&lt;span style=&quot;color: #cccccc;&quot;&gt;&amp;nbsp; &amp;nbsp; &amp;nbsp; &lt;/span&gt;&lt;span style=&quot;color: #ce9178;&quot;&gt;&quot;opcoes_cartao&quot;&lt;/span&gt;&lt;span style=&quot;color: #cccccc;&quot;&gt; : &amp;nbsp; &amp;nbsp; &amp;nbsp; &amp;nbsp; &amp;nbsp; &amp;nbsp; &lt;/span&gt;&lt;span style=&quot;color: #ce9178;&quot;&gt;&quot;Lista com todos os cartões possíveis&quot;&lt;/span&gt;&lt;span style=&quot;color: #cccccc;&quot;&gt;,&lt;/span&gt;&lt;/div&gt;&lt;div&gt;&lt;span style=&quot;color: #cccccc;&quot;&gt;&amp;nbsp; &amp;nbsp; &amp;nbsp; &lt;/span&gt;&lt;span style=&quot;color: #ce9178;&quot;&gt;&quot;opcoes_dias&quot;&lt;/span&gt;&lt;span style=&quot;color: #cccccc;&quot;&gt; : &amp;nbsp; &amp;nbsp; &amp;nbsp; &amp;nbsp; &amp;nbsp; &amp;nbsp; &amp;nbsp; &lt;/span&gt;&lt;span style=&quot;color: #ce9178;&quot;&gt;&quot;Lista com todos os dias possiveis&quot;&lt;/span&gt;&lt;span style=&quot;color: #cccccc;&quot;&gt;,&lt;/span&gt;&lt;/div&gt;&lt;div&gt;&lt;span style=&quot;color: #cccccc;&quot;&gt;&amp;nbsp; &amp;nbsp; &amp;nbsp; &lt;/span&gt;&lt;span style=&quot;color: #ce9178;&quot;&gt;&quot;opcoes_hora&quot;&lt;/span&gt;&lt;span style=&quot;color: #cccccc;&quot;&gt; : &amp;nbsp; &amp;nbsp; &amp;nbsp; &amp;nbsp; &amp;nbsp; &amp;nbsp; &amp;nbsp; &lt;/span&gt;&lt;span style=&quot;color: #ce9178;&quot;&gt;&quot;Lista com todas as horas possíveis&quot;&lt;/span&gt;&lt;span style=&quot;color: #cccccc;&quot;&gt;,&lt;/span&gt;&lt;/div&gt;&lt;div&gt;&lt;span style=&quot;color: #cccccc;&quot;&gt;&amp;nbsp; &amp;nbsp; &amp;nbsp; &lt;/span&gt;&lt;span style=&quot;color: #ce9178;&quot;&gt;&quot;opcoes_pet&quot;&lt;/span&gt;&lt;span style=&quot;color: #cccccc;&quot;&gt; : &amp;nbsp; &amp;nbsp; &amp;nbsp; &amp;nbsp; &amp;nbsp; &amp;nbsp; &amp;nbsp; &amp;nbsp;&lt;/span&gt;&lt;span style=&quot;color: #ce9178;&quot;&gt;&quot;Lista com todas as opcoes de Pet possíveis&quot;&lt;/span&gt;&lt;span style=&quot;color: #cccccc;&quot;&gt;,&lt;/span&gt;&lt;/div&gt;&lt;div&gt;&lt;span style=&quot;color: #cccccc;&quot;&gt;&amp;nbsp; &amp;nbsp; &amp;nbsp; &lt;/span&gt;&lt;span style=&quot;color: #ce9178;&quot;&gt;&quot;opcoes_estilo_servico&quot;&lt;/span&gt;&lt;span style=&quot;color: #cccccc;&quot;&gt; : &amp;nbsp; &amp;nbsp; &lt;/span&gt;&lt;span style=&quot;color: #ce9178;&quot;&gt;&quot;Lista com todas as opções de estilo de serviço possíveis&quot;&lt;/span&gt;&lt;span style=&quot;color: #cccccc;&quot;&gt;,&lt;/span&gt;&lt;/div&gt;&lt;div&gt;&lt;span style=&quot;color: #cccccc;&quot;&gt;&amp;nbsp; &amp;nbsp; &amp;nbsp; &lt;/span&gt;&lt;span style=&quot;color: #ce9178;&quot;&gt;&quot;opcoes_glutenfree&quot;&lt;/span&gt;&lt;span style=&quot;color: #cccccc;&quot;&gt; : &amp;nbsp; &amp;nbsp; &amp;nbsp; &amp;nbsp; &lt;/span&gt;&lt;span style=&quot;color: #ce9178;&quot;&gt;&quot;Lista com todas as opcoes de gluten free&quot;&lt;/span&gt;&lt;span style=&quot;color: #cccccc;&quot;&gt;,&lt;/span&gt;&lt;/div&gt;&lt;div&gt;&lt;span style=&quot;color: #cccccc;&quot;&gt;&amp;nbsp; &amp;nbsp; &amp;nbsp; &lt;/span&gt;&lt;span style=&quot;color: #ce9178;&quot;&gt;&quot;opcoes_lactosefree&quot;&lt;/span&gt;&lt;span style=&quot;color: #cccccc;&quot;&gt; : &amp;nbsp; &amp;nbsp; &amp;nbsp; &amp;nbsp;&lt;/span&gt;&lt;span style=&quot;color: #ce9178;&quot;&gt;&quot;Lista com todas as opcoes de lactose free&quot;&lt;/span&gt;&lt;span style=&quot;color: #cccccc;&quot;&gt;,&lt;/span&gt;&lt;/div&gt;&lt;div&gt;&lt;span style=&quot;color: #cccccc;&quot;&gt;}&lt;/span&gt;&lt;/div&gt;&lt;/div&gt;" style="text;whiteSpace=wrap;html=1;" vertex="1" parent="1">
          <mxGeometry x="4180" y="1262.5" width="860" height="540" as="geometry" />
        </mxCell>
        <mxCell id="otfIkombBEl5gzPAVcly-26" value="" style="edgeStyle=orthogonalEdgeStyle;rounded=0;orthogonalLoop=1;jettySize=auto;html=1;" edge="1" parent="1" source="otfIkombBEl5gzPAVcly-23" target="otfIkombBEl5gzPAVcly-25">
          <mxGeometry relative="1" as="geometry" />
        </mxCell>
        <mxCell id="otfIkombBEl5gzPAVcly-23" value="&lt;div style=&quot;color: rgb(204, 204, 204); background-color: rgb(31, 31, 31); font-family: Consolas, &amp;quot;Courier New&amp;quot;, monospace; font-weight: normal; font-size: 14px; line-height: 19px;&quot;&gt;&lt;div&gt;&lt;span style=&quot;color: #4fc1ff;&quot;&gt;DESCRICOES&lt;/span&gt;&lt;span style=&quot;color: #cccccc;&quot;&gt; &lt;/span&gt;&lt;span style=&quot;color: #d4d4d4;&quot;&gt;=&lt;/span&gt;&lt;span style=&quot;color: #cccccc;&quot;&gt; {&lt;/span&gt;&lt;/div&gt;&lt;div&gt;&lt;span style=&quot;color: #cccccc;&quot;&gt;&amp;nbsp; &amp;nbsp; &amp;nbsp; &lt;/span&gt;&lt;span style=&quot;color: #ce9178;&quot;&gt;&quot;id&quot;&lt;/span&gt;&lt;span style=&quot;color: #cccccc;&quot;&gt; : &amp;nbsp; &amp;nbsp; &amp;nbsp; &amp;nbsp; &amp;nbsp; &amp;nbsp; &amp;nbsp; &amp;nbsp; &amp;nbsp; &amp;nbsp; &amp;nbsp; &amp;nbsp;&lt;/span&gt;&lt;span style=&quot;color: #ce9178;&quot;&gt;&quot;Identificador gerado pelo nosso site para aquele restaurante&quot;&lt;/span&gt;&lt;span style=&quot;color: #cccccc;&quot;&gt;,&lt;/span&gt;&lt;/div&gt;&lt;div&gt;&lt;span style=&quot;color: #cccccc;&quot;&gt;&amp;nbsp; &amp;nbsp; &amp;nbsp; &lt;/span&gt;&lt;span style=&quot;color: #ce9178;&quot;&gt;&quot;descricao&quot;&lt;/span&gt;&lt;span style=&quot;color: #cccccc;&quot;&gt; : &amp;nbsp; &amp;nbsp; &amp;nbsp; &amp;nbsp; &amp;nbsp; &amp;nbsp; &amp;nbsp; &amp;nbsp; &lt;/span&gt;&lt;span style=&quot;color: #ce9178;&quot;&gt;&quot;Uma descrição sobre o restaurante que deverá ser um texto livre&quot;&lt;/span&gt;&lt;span style=&quot;color: #cccccc;&quot;&gt;,&lt;/span&gt;&lt;/div&gt;&lt;div&gt;&lt;span style=&quot;color: #cccccc;&quot;&gt;&amp;nbsp; &amp;nbsp; &amp;nbsp; &lt;/span&gt;&lt;span style=&quot;color: #ce9178;&quot;&gt;&quot;rua&quot;&lt;/span&gt;&lt;span style=&quot;color: #cccccc;&quot;&gt; : &amp;nbsp; &amp;nbsp; &amp;nbsp; &amp;nbsp; &amp;nbsp; &amp;nbsp; &amp;nbsp; &amp;nbsp; &amp;nbsp; &amp;nbsp; &amp;nbsp; &lt;/span&gt;&lt;span style=&quot;color: #ce9178;&quot;&gt;&quot;Endereco completo com nome da rua e numero&quot;&lt;/span&gt;&lt;span style=&quot;color: #cccccc;&quot;&gt;,&lt;/span&gt;&lt;/div&gt;&lt;div&gt;&lt;span style=&quot;color: #cccccc;&quot;&gt;&amp;nbsp; &amp;nbsp; &amp;nbsp; &lt;/span&gt;&lt;span style=&quot;color: #ce9178;&quot;&gt;&quot;cep&quot;&lt;/span&gt;&lt;span style=&quot;color: #cccccc;&quot;&gt; : &amp;nbsp; &amp;nbsp; &amp;nbsp; &amp;nbsp; &amp;nbsp; &amp;nbsp; &amp;nbsp; &amp;nbsp; &amp;nbsp; &amp;nbsp; &amp;nbsp; &lt;/span&gt;&lt;span style=&quot;color: #ce9178;&quot;&gt;&quot;CEP do estabelecimento&quot;&lt;/span&gt;&lt;span style=&quot;color: #cccccc;&quot;&gt;,&lt;/span&gt;&lt;/div&gt;&lt;div&gt;&lt;span style=&quot;color: #cccccc;&quot;&gt;&amp;nbsp; &amp;nbsp; &amp;nbsp; &lt;/span&gt;&lt;span style=&quot;color: #ce9178;&quot;&gt;&quot;cidade&quot;&lt;/span&gt;&lt;span style=&quot;color: #cccccc;&quot;&gt; : &amp;nbsp; &amp;nbsp; &amp;nbsp; &amp;nbsp; &amp;nbsp; &amp;nbsp; &amp;nbsp; &amp;nbsp; &amp;nbsp; &amp;nbsp;&lt;/span&gt;&lt;span style=&quot;color: #ce9178;&quot;&gt;&quot;Cidade do estabelecimento&quot;&lt;/span&gt;&lt;span style=&quot;color: #cccccc;&quot;&gt;,&lt;/span&gt;&lt;/div&gt;&lt;div&gt;&lt;span style=&quot;color: #cccccc;&quot;&gt;&amp;nbsp; &amp;nbsp; &amp;nbsp; &lt;/span&gt;&lt;span style=&quot;color: #ce9178;&quot;&gt;&quot;bairro&quot;&lt;/span&gt;&lt;span style=&quot;color: #cccccc;&quot;&gt; : &amp;nbsp; &amp;nbsp; &amp;nbsp; &amp;nbsp; &amp;nbsp; &amp;nbsp; &amp;nbsp; &amp;nbsp; &amp;nbsp; &amp;nbsp;&lt;/span&gt;&lt;span style=&quot;color: #ce9178;&quot;&gt;&quot;Bairro do estabelecimento&quot;&lt;/span&gt;&lt;span style=&quot;color: #cccccc;&quot;&gt;,&lt;/span&gt;&lt;/div&gt;&lt;div&gt;&lt;span style=&quot;color: #cccccc;&quot;&gt;&amp;nbsp; &amp;nbsp; &amp;nbsp; &lt;/span&gt;&lt;span style=&quot;color: #ce9178;&quot;&gt;&quot;regiao&quot;&lt;/span&gt;&lt;span style=&quot;color: #cccccc;&quot;&gt; : &amp;nbsp; &amp;nbsp; &amp;nbsp; &amp;nbsp; &amp;nbsp; &amp;nbsp; &amp;nbsp; &amp;nbsp; &amp;nbsp; &amp;nbsp;&lt;/span&gt;&lt;span style=&quot;color: #ce9178;&quot;&gt;&quot;Região da cidade que o estabelecimento está localizado&quot;&lt;/span&gt;&lt;span style=&quot;color: #cccccc;&quot;&gt;,&lt;/span&gt;&lt;/div&gt;&lt;div&gt;&lt;span style=&quot;color: #cccccc;&quot;&gt;&amp;nbsp; &amp;nbsp; &amp;nbsp; &lt;/span&gt;&lt;span style=&quot;color: #ce9178;&quot;&gt;&quot;entrada&quot;&lt;/span&gt;&lt;span style=&quot;color: #cccccc;&quot;&gt; : &amp;nbsp; &amp;nbsp; &amp;nbsp; &amp;nbsp; &amp;nbsp; &amp;nbsp; &amp;nbsp; &amp;nbsp; &amp;nbsp; &lt;/span&gt;&lt;span style=&quot;color: #ce9178;&quot;&gt;&quot;Valor da entrada no estabelecimento&quot;&lt;/span&gt;&lt;span style=&quot;color: #cccccc;&quot;&gt;,&lt;/span&gt;&lt;/div&gt;&lt;div&gt;&lt;span style=&quot;color: #cccccc;&quot;&gt;&amp;nbsp; &amp;nbsp; &amp;nbsp; &lt;/span&gt;&lt;span style=&quot;color: #ce9178;&quot;&gt;&quot;estacao&quot;&lt;/span&gt;&lt;span style=&quot;color: #cccccc;&quot;&gt; : &amp;nbsp; &amp;nbsp; &amp;nbsp; &amp;nbsp; &amp;nbsp; &amp;nbsp; &amp;nbsp; &amp;nbsp; &amp;nbsp; &lt;/span&gt;&lt;span style=&quot;color: #ce9178;&quot;&gt;&quot;Estação de metro mais próxima se apliável (somente 1)&quot;&lt;/span&gt;&lt;span style=&quot;color: #cccccc;&quot;&gt;,&lt;/span&gt;&lt;/div&gt;&lt;div&gt;&lt;span style=&quot;color: #cccccc;&quot;&gt;&amp;nbsp; &amp;nbsp; &amp;nbsp; &lt;/span&gt;&lt;span style=&quot;color: #ce9178;&quot;&gt;&quot;estrelas&quot;&lt;/span&gt;&lt;span style=&quot;color: #cccccc;&quot;&gt; : &amp;nbsp; &amp;nbsp; &amp;nbsp; &amp;nbsp; &amp;nbsp; &amp;nbsp; &amp;nbsp; &amp;nbsp; &amp;nbsp;&lt;/span&gt;&lt;span style=&quot;color: #ce9178;&quot;&gt;&quot;Numero de estrelas dos restaurantes[Número de 1 a 5]&quot;&lt;/span&gt;&lt;span style=&quot;color: #cccccc;&quot;&gt;,&lt;/span&gt;&lt;/div&gt;&lt;div&gt;&lt;span style=&quot;color: #cccccc;&quot;&gt;&amp;nbsp; &amp;nbsp; &amp;nbsp; &lt;/span&gt;&lt;span style=&quot;color: #ce9178;&quot;&gt;&quot;avaliacao_clientes&quot;&lt;/span&gt;&lt;span style=&quot;color: #cccccc;&quot;&gt; : &amp;nbsp; &amp;nbsp; &amp;nbsp; &amp;nbsp;&lt;/span&gt;&lt;span style=&quot;color: #ce9178;&quot;&gt;&quot;Media da avaliação de clientes [Número de 1 a 5]&quot;&lt;/span&gt;&lt;span style=&quot;color: #cccccc;&quot;&gt;,&lt;/span&gt;&lt;/div&gt;&lt;div&gt;&lt;span style=&quot;color: #cccccc;&quot;&gt;&amp;nbsp; &amp;nbsp; &amp;nbsp; &lt;/span&gt;&lt;span style=&quot;color: #ce9178;&quot;&gt;&quot;avaliacao_pagina&quot;&lt;/span&gt;&lt;span style=&quot;color: #cccccc;&quot;&gt; : &amp;nbsp; &amp;nbsp; &amp;nbsp; &amp;nbsp; &amp;nbsp;&lt;/span&gt;&lt;span style=&quot;color: #ce9178;&quot;&gt;&quot;A nota que demos para o nosso restaurante da nossa experiencia&quot;&lt;/span&gt;&lt;span style=&quot;color: #cccccc;&quot;&gt;,&lt;/span&gt;&lt;/div&gt;&lt;div&gt;&lt;span style=&quot;color: #cccccc;&quot;&gt;&amp;nbsp; &amp;nbsp; &amp;nbsp; &lt;/span&gt;&lt;span style=&quot;color: #ce9178;&quot;&gt;&quot;descricao_pagina&quot;&lt;/span&gt;&lt;span style=&quot;color: #cccccc;&quot;&gt; : &amp;nbsp; &amp;nbsp; &amp;nbsp; &amp;nbsp; &amp;nbsp;&lt;/span&gt;&lt;span style=&quot;color: #ce9178;&quot;&gt;&quot;Descrição que nós elaboraremos sobre o restaurante&quot;&lt;/span&gt;&lt;span style=&quot;color: #cccccc;&quot;&gt;,&lt;/span&gt;&lt;/div&gt;&lt;div&gt;&lt;span style=&quot;color: #cccccc;&quot;&gt;&amp;nbsp; &amp;nbsp; &amp;nbsp; &lt;/span&gt;&lt;span style=&quot;color: #ce9178;&quot;&gt;&quot;link_pagina&quot;&lt;/span&gt;&lt;span style=&quot;color: #cccccc;&quot;&gt; : &amp;nbsp; &amp;nbsp; &amp;nbsp; &amp;nbsp; &amp;nbsp; &amp;nbsp; &amp;nbsp; &lt;/span&gt;&lt;span style=&quot;color: #ce9178;&quot;&gt;&quot;Não entendi, me ajuda LUANE&quot;&lt;/span&gt;&lt;span style=&quot;color: #cccccc;&quot;&gt;,&lt;/span&gt;&lt;/div&gt;&lt;div&gt;&lt;span style=&quot;color: #cccccc;&quot;&gt;&amp;nbsp; &amp;nbsp; &amp;nbsp; &lt;/span&gt;&lt;span style=&quot;color: #ce9178;&quot;&gt;&quot;midia_pagina&quot;&lt;/span&gt;&lt;span style=&quot;color: #cccccc;&quot;&gt; : &amp;nbsp; &amp;nbsp; &amp;nbsp; &amp;nbsp; &amp;nbsp; &amp;nbsp; &amp;nbsp;&lt;/span&gt;&lt;span style=&quot;color: #ce9178;&quot;&gt;&quot;Não entendi, me ajuda LUANE&quot;&lt;/span&gt;&lt;span style=&quot;color: #cccccc;&quot;&gt;,&lt;/span&gt;&lt;/div&gt;&lt;div&gt;&lt;span style=&quot;color: #cccccc;&quot;&gt;&amp;nbsp; &amp;nbsp; &amp;nbsp; &lt;/span&gt;&lt;span style=&quot;color: #ce9178;&quot;&gt;&quot;acessibilidade&quot;&lt;/span&gt;&lt;span style=&quot;color: #cccccc;&quot;&gt; : &amp;nbsp; &amp;nbsp; &amp;nbsp; &amp;nbsp; &amp;nbsp; &amp;nbsp;&lt;/span&gt;&lt;span style=&quot;color: #ce9178;&quot;&gt;&quot;Lista com todas as opcoes de acessibilidade&quot;&lt;/span&gt;&lt;span style=&quot;color: #cccccc;&quot;&gt;,&lt;/span&gt;&lt;/div&gt;&lt;div&gt;&lt;span style=&quot;color: #cccccc;&quot;&gt;&amp;nbsp; &amp;nbsp; &amp;nbsp; &lt;/span&gt;&lt;span style=&quot;color: #ce9178;&quot;&gt;&quot;musica&quot;&lt;/span&gt;&lt;span style=&quot;color: #cccccc;&quot;&gt; : &amp;nbsp; &amp;nbsp; &amp;nbsp; &amp;nbsp; &amp;nbsp; &amp;nbsp; &amp;nbsp; &amp;nbsp; &amp;nbsp; &amp;nbsp;&lt;/span&gt;&lt;span style=&quot;color: #ce9178;&quot;&gt;&quot;Informa se o estabelecimento possui musica ao vivo&quot;&lt;/span&gt;&lt;span style=&quot;color: #cccccc;&quot;&gt;,&lt;/span&gt;&lt;/div&gt;&lt;div&gt;&lt;span style=&quot;color: #cccccc;&quot;&gt;&amp;nbsp; &amp;nbsp; &amp;nbsp; &lt;/span&gt;&lt;span style=&quot;color: #ce9178;&quot;&gt;&quot;estacionamento&quot;&lt;/span&gt;&lt;span style=&quot;color: #cccccc;&quot;&gt; : &amp;nbsp; &amp;nbsp; &amp;nbsp; &amp;nbsp; &amp;nbsp; &amp;nbsp;&lt;/span&gt;&lt;span style=&quot;color: #ce9178;&quot;&gt;&quot;Informa se o estabelecimento possui estacionamento&quot;&lt;/span&gt;&lt;span style=&quot;color: #cccccc;&quot;&gt;,&lt;/span&gt;&lt;/div&gt;&lt;div&gt;&lt;span style=&quot;color: #cccccc;&quot;&gt;&amp;nbsp; &amp;nbsp; &amp;nbsp; &lt;/span&gt;&lt;span style=&quot;color: #ce9178;&quot;&gt;&quot;cover&quot;&lt;/span&gt;&lt;span style=&quot;color: #cccccc;&quot;&gt; : &amp;nbsp; &amp;nbsp; &amp;nbsp; &amp;nbsp; &amp;nbsp; &amp;nbsp; &amp;nbsp; &amp;nbsp; &amp;nbsp; &amp;nbsp; &lt;/span&gt;&lt;span style=&quot;color: #ce9178;&quot;&gt;&quot;Informa se o estabelecimento possui taxa de Cover&quot;&lt;/span&gt;&lt;span style=&quot;color: #cccccc;&quot;&gt;,&lt;/span&gt;&lt;/div&gt;&lt;div&gt;&lt;span style=&quot;color: #cccccc;&quot;&gt;&amp;nbsp; &amp;nbsp; &amp;nbsp; &lt;/span&gt;&lt;span style=&quot;color: #ce9178;&quot;&gt;&quot;kids&quot;&lt;/span&gt;&lt;span style=&quot;color: #cccccc;&quot;&gt; : &amp;nbsp; &amp;nbsp; &amp;nbsp; &amp;nbsp; &amp;nbsp; &amp;nbsp; &amp;nbsp; &amp;nbsp; &amp;nbsp; &amp;nbsp; &amp;nbsp;&lt;/span&gt;&lt;span style=&quot;color: #ce9178;&quot;&gt;&quot;Informa se o estabelecimento possui espaço Kids&quot;&lt;/span&gt;&lt;span style=&quot;color: #cccccc;&quot;&gt;,&lt;/span&gt;&lt;/div&gt;&lt;div&gt;&lt;span style=&quot;color: #cccccc;&quot;&gt;&amp;nbsp; &amp;nbsp; &amp;nbsp; &lt;/span&gt;&lt;span style=&quot;color: #ce9178;&quot;&gt;&quot;website&quot;&lt;/span&gt;&lt;span style=&quot;color: #cccccc;&quot;&gt; : &amp;nbsp; &amp;nbsp; &amp;nbsp; &amp;nbsp; &amp;nbsp; &amp;nbsp; &amp;nbsp; &amp;nbsp; &amp;nbsp; &lt;/span&gt;&lt;span style=&quot;color: #ce9178;&quot;&gt;&quot;Informa o website do estabelecimento&quot;&lt;/span&gt;&lt;span style=&quot;color: #cccccc;&quot;&gt;,&lt;/span&gt;&lt;/div&gt;&lt;div&gt;&lt;span style=&quot;color: #cccccc;&quot;&gt;&amp;nbsp; &amp;nbsp; &amp;nbsp; &lt;/span&gt;&lt;span style=&quot;color: #ce9178;&quot;&gt;&quot;premio&quot;&lt;/span&gt;&lt;span style=&quot;color: #cccccc;&quot;&gt; : &amp;nbsp; &amp;nbsp; &amp;nbsp; &amp;nbsp; &amp;nbsp; &amp;nbsp; &amp;nbsp; &amp;nbsp; &amp;nbsp; &amp;nbsp;&lt;/span&gt;&lt;span style=&quot;color: #ce9178;&quot;&gt;&quot;Lista com todos os prêmios qu eo restaurante ganhou&quot;&lt;/span&gt;&lt;span style=&quot;color: #cccccc;&quot;&gt;,&lt;/span&gt;&lt;/div&gt;&lt;div&gt;&lt;span style=&quot;color: #cccccc;&quot;&gt;&amp;nbsp; &amp;nbsp; &amp;nbsp; &lt;/span&gt;&lt;span style=&quot;color: #ce9178;&quot;&gt;&quot;estilo_musical&quot;&lt;/span&gt;&lt;span style=&quot;color: #cccccc;&quot;&gt; : &amp;nbsp; &amp;nbsp; &amp;nbsp; &amp;nbsp; &amp;nbsp; &amp;nbsp;&lt;/span&gt;&lt;span style=&quot;color: #ce9178;&quot;&gt;&quot;Lista com todos os estilos musicais que tocam no estabelecimento&quot;&lt;/span&gt;&lt;span style=&quot;color: #cccccc;&quot;&gt;,&lt;/span&gt;&lt;/div&gt;&lt;div&gt;&lt;span style=&quot;color: #cccccc;&quot;&gt;&amp;nbsp; &amp;nbsp; &amp;nbsp; &lt;/span&gt;&lt;span style=&quot;color: #ce9178;&quot;&gt;&quot;cozinha&quot;&lt;/span&gt;&lt;span style=&quot;color: #cccccc;&quot;&gt; : &amp;nbsp; &amp;nbsp; &amp;nbsp; &amp;nbsp; &amp;nbsp; &amp;nbsp; &amp;nbsp; &amp;nbsp; &amp;nbsp; &lt;/span&gt;&lt;span style=&quot;color: #ce9178;&quot;&gt;&quot;Lista com todos os tipos e cozinha que o estabelecimento possui&quot;&lt;/span&gt;&lt;span style=&quot;color: #cccccc;&quot;&gt;,&lt;/span&gt;&lt;/div&gt;&lt;div&gt;&lt;span style=&quot;color: #cccccc;&quot;&gt;&amp;nbsp; &amp;nbsp; &amp;nbsp; &lt;/span&gt;&lt;span style=&quot;color: #ce9178;&quot;&gt;&quot;local&quot;&lt;/span&gt;&lt;span style=&quot;color: #cccccc;&quot;&gt; : &amp;nbsp; &amp;nbsp; &amp;nbsp; &amp;nbsp; &amp;nbsp; &amp;nbsp; &amp;nbsp; &amp;nbsp; &amp;nbsp; &amp;nbsp; &lt;/span&gt;&lt;span style=&quot;color: #ce9178;&quot;&gt;&quot;Caracteristica do local&quot;&lt;/span&gt;&lt;span style=&quot;color: #cccccc;&quot;&gt;,&lt;/span&gt;&lt;/div&gt;&lt;div&gt;&lt;span style=&quot;color: #cccccc;&quot;&gt;&amp;nbsp; &amp;nbsp; &amp;nbsp; &lt;/span&gt;&lt;span style=&quot;color: #ce9178;&quot;&gt;&quot;preco&quot;&lt;/span&gt;&lt;span style=&quot;color: #cccccc;&quot;&gt; : &amp;nbsp; &amp;nbsp; &amp;nbsp; &amp;nbsp; &amp;nbsp; &amp;nbsp; &amp;nbsp; &amp;nbsp; &amp;nbsp; &amp;nbsp; &lt;/span&gt;&lt;span style=&quot;color: #ce9178;&quot;&gt;&quot;Lista com todos os preços possíveis [1 à 5]&quot;&lt;/span&gt;&lt;span style=&quot;color: #cccccc;&quot;&gt;,&lt;/span&gt;&lt;/div&gt;&lt;div&gt;&lt;span style=&quot;color: #cccccc;&quot;&gt;&amp;nbsp; &amp;nbsp; &amp;nbsp; &lt;/span&gt;&lt;span style=&quot;color: #ce9178;&quot;&gt;&quot;tipo_evento&quot;&lt;/span&gt;&lt;span style=&quot;color: #cccccc;&quot;&gt; : &amp;nbsp; &amp;nbsp; &amp;nbsp; &amp;nbsp; &amp;nbsp; &amp;nbsp; &amp;nbsp; &lt;/span&gt;&lt;span style=&quot;color: #ce9178;&quot;&gt;&quot;Lista com todos os tipos de evento possíveis&quot;&lt;/span&gt;&lt;span style=&quot;color: #cccccc;&quot;&gt;,&lt;/span&gt;&lt;/div&gt;&lt;div&gt;&lt;span style=&quot;color: #cccccc;&quot;&gt;&amp;nbsp; &amp;nbsp; &amp;nbsp; &lt;/span&gt;&lt;span style=&quot;color: #ce9178;&quot;&gt;&quot;hobby&quot;&lt;/span&gt;&lt;span style=&quot;color: #cccccc;&quot;&gt; : &amp;nbsp; &amp;nbsp; &amp;nbsp; &amp;nbsp; &amp;nbsp; &amp;nbsp; &amp;nbsp; &amp;nbsp; &amp;nbsp; &amp;nbsp; &lt;/span&gt;&lt;span style=&quot;color: #ce9178;&quot;&gt;&quot;Lista com todas as opções de hobby possiveis&quot;&lt;/span&gt;&lt;span style=&quot;color: #cccccc;&quot;&gt;,&lt;/span&gt;&lt;/div&gt;&lt;div&gt;&lt;span style=&quot;color: #cccccc;&quot;&gt;&amp;nbsp; &amp;nbsp; &amp;nbsp; &lt;/span&gt;&lt;span style=&quot;color: #ce9178;&quot;&gt;&quot;ambiente&quot;&lt;/span&gt;&lt;span style=&quot;color: #cccccc;&quot;&gt; : &amp;nbsp; &amp;nbsp; &amp;nbsp; &amp;nbsp; &amp;nbsp; &amp;nbsp; &amp;nbsp; &amp;nbsp; &amp;nbsp;&lt;/span&gt;&lt;span style=&quot;color: #ce9178;&quot;&gt;&quot;Lista com todos os ambientes possíveis&quot;&lt;/span&gt;&lt;span style=&quot;color: #cccccc;&quot;&gt;,&lt;/span&gt;&lt;/div&gt;&lt;div&gt;&lt;span style=&quot;color: #cccccc;&quot;&gt;&amp;nbsp; &amp;nbsp; &amp;nbsp; &lt;/span&gt;&lt;span style=&quot;color: #ce9178;&quot;&gt;&quot;cartao&quot;&lt;/span&gt;&lt;span style=&quot;color: #cccccc;&quot;&gt; : &amp;nbsp; &amp;nbsp; &amp;nbsp; &amp;nbsp; &amp;nbsp; &amp;nbsp; &amp;nbsp; &amp;nbsp; &amp;nbsp; &amp;nbsp;&lt;/span&gt;&lt;span style=&quot;color: #ce9178;&quot;&gt;&quot;Lista com todos os cartões possíveis&quot;&lt;/span&gt;&lt;span style=&quot;color: #cccccc;&quot;&gt;,&lt;/span&gt;&lt;/div&gt;&lt;div&gt;&lt;span style=&quot;color: #cccccc;&quot;&gt;&amp;nbsp; &amp;nbsp; &amp;nbsp; &lt;/span&gt;&lt;span style=&quot;color: #ce9178;&quot;&gt;&quot;dias&quot;&lt;/span&gt;&lt;span style=&quot;color: #cccccc;&quot;&gt; : &amp;nbsp; &amp;nbsp; &amp;nbsp; &amp;nbsp; &amp;nbsp; &amp;nbsp; &amp;nbsp; &amp;nbsp; &amp;nbsp; &amp;nbsp; &amp;nbsp;&lt;/span&gt;&lt;span style=&quot;color: #ce9178;&quot;&gt;&quot;Lista com todos os dias possiveis&quot;&lt;/span&gt;&lt;span style=&quot;color: #cccccc;&quot;&gt;,&lt;/span&gt;&lt;/div&gt;&lt;div&gt;&lt;span style=&quot;color: #cccccc;&quot;&gt;&amp;nbsp; &amp;nbsp; &amp;nbsp; &lt;/span&gt;&lt;span style=&quot;color: #ce9178;&quot;&gt;&quot;hora&quot;&lt;/span&gt;&lt;span style=&quot;color: #cccccc;&quot;&gt; : &amp;nbsp; &amp;nbsp; &amp;nbsp; &amp;nbsp; &amp;nbsp; &amp;nbsp; &amp;nbsp; &amp;nbsp; &amp;nbsp; &amp;nbsp; &amp;nbsp;&lt;/span&gt;&lt;span style=&quot;color: #ce9178;&quot;&gt;&quot;Lista com todas as horas possíveis&quot;&lt;/span&gt;&lt;span style=&quot;color: #cccccc;&quot;&gt;,&lt;/span&gt;&lt;/div&gt;&lt;div&gt;&lt;span style=&quot;color: #cccccc;&quot;&gt;&amp;nbsp; &amp;nbsp; &amp;nbsp; &lt;/span&gt;&lt;span style=&quot;color: #ce9178;&quot;&gt;&quot;pet&quot;&lt;/span&gt;&lt;span style=&quot;color: #cccccc;&quot;&gt; : &amp;nbsp; &amp;nbsp; &amp;nbsp; &amp;nbsp; &amp;nbsp; &amp;nbsp; &amp;nbsp; &amp;nbsp; &amp;nbsp; &amp;nbsp; &amp;nbsp; &lt;/span&gt;&lt;span style=&quot;color: #ce9178;&quot;&gt;&quot;Lista com todas as opcoes de Pet possíveis&quot;&lt;/span&gt;&lt;span style=&quot;color: #cccccc;&quot;&gt;,&lt;/span&gt;&lt;/div&gt;&lt;div&gt;&lt;span style=&quot;color: #cccccc;&quot;&gt;&amp;nbsp; &amp;nbsp; &amp;nbsp; &lt;/span&gt;&lt;span style=&quot;color: #ce9178;&quot;&gt;&quot;estilo_servico&quot;&lt;/span&gt;&lt;span style=&quot;color: #cccccc;&quot;&gt; : &amp;nbsp; &amp;nbsp; &amp;nbsp; &amp;nbsp; &amp;nbsp; &amp;nbsp;&lt;/span&gt;&lt;span style=&quot;color: #ce9178;&quot;&gt;&quot;Lista com todas as opções de estilo de serviço possíveis&quot;&lt;/span&gt;&lt;span style=&quot;color: #cccccc;&quot;&gt;,&lt;/span&gt;&lt;/div&gt;&lt;div&gt;&lt;span style=&quot;color: #cccccc;&quot;&gt;&amp;nbsp; &amp;nbsp; &amp;nbsp; &lt;/span&gt;&lt;span style=&quot;color: #ce9178;&quot;&gt;&quot;glutenfree&quot;&lt;/span&gt;&lt;span style=&quot;color: #cccccc;&quot;&gt; : &amp;nbsp; &amp;nbsp; &amp;nbsp; &amp;nbsp; &amp;nbsp; &amp;nbsp; &amp;nbsp; &amp;nbsp;&lt;/span&gt;&lt;span style=&quot;color: #ce9178;&quot;&gt;&quot;Lista com todas as opcoes de gluten free&quot;&lt;/span&gt;&lt;span style=&quot;color: #cccccc;&quot;&gt;,&lt;/span&gt;&lt;/div&gt;&lt;div&gt;&lt;span style=&quot;color: #cccccc;&quot;&gt;&amp;nbsp; &amp;nbsp; &amp;nbsp; &lt;/span&gt;&lt;span style=&quot;color: #ce9178;&quot;&gt;&quot;lactosefree&quot;&lt;/span&gt;&lt;span style=&quot;color: #cccccc;&quot;&gt; : &amp;nbsp; &amp;nbsp; &amp;nbsp; &amp;nbsp; &amp;nbsp; &amp;nbsp; &amp;nbsp; &lt;/span&gt;&lt;span style=&quot;color: #ce9178;&quot;&gt;&quot;Lista com todas as opcoes de lactose free&quot;&lt;/span&gt;&lt;span style=&quot;color: #cccccc;&quot;&gt;,&lt;/span&gt;&lt;/div&gt;&lt;div&gt;&lt;span style=&quot;color: #cccccc;&quot;&gt;}&lt;/span&gt;&lt;/div&gt;&lt;/div&gt;" style="text;whiteSpace=wrap;html=1;" vertex="1" parent="1">
          <mxGeometry x="4205" y="500" width="810" height="740" as="geometry" />
        </mxCell>
        <mxCell id="otfIkombBEl5gzPAVcly-34" style="edgeStyle=orthogonalEdgeStyle;rounded=0;orthogonalLoop=1;jettySize=auto;html=1;" edge="1" parent="1" source="otfIkombBEl5gzPAVcly-25" target="otfIkombBEl5gzPAVcly-8">
          <mxGeometry relative="1" as="geometry">
            <Array as="points">
              <mxPoint x="5190" y="1910" />
              <mxPoint x="3527" y="1910" />
            </Array>
          </mxGeometry>
        </mxCell>
        <mxCell id="otfIkombBEl5gzPAVcly-25" value="id" style="rounded=1;whiteSpace=wrap;html=1;fontSize=50;fontStyle=1;fillColor=#d5e8d4;strokeColor=#82b366;" vertex="1" parent="1">
          <mxGeometry x="5130" y="840" width="120" height="60" as="geometry" />
        </mxCell>
        <mxCell id="otfIkombBEl5gzPAVcly-33" style="edgeStyle=orthogonalEdgeStyle;rounded=0;orthogonalLoop=1;jettySize=auto;html=1;" edge="1" parent="1" source="otfIkombBEl5gzPAVcly-27" target="otfIkombBEl5gzPAVcly-29">
          <mxGeometry relative="1" as="geometry" />
        </mxCell>
        <mxCell id="otfIkombBEl5gzPAVcly-27" value="" style="shape=image;html=1;verticalAlign=top;verticalLabelPosition=bottom;labelBackgroundColor=#ffffff;imageAspect=0;aspect=fixed;image=https://cdn4.iconfinder.com/data/icons/essentials-71/24/006_-_Image-128.png" vertex="1" parent="1">
          <mxGeometry x="3822.13" y="2051" width="128" height="128" as="geometry" />
        </mxCell>
        <mxCell id="otfIkombBEl5gzPAVcly-29" value="" style="shape=image;html=1;verticalAlign=top;verticalLabelPosition=bottom;labelBackgroundColor=#ffffff;imageAspect=0;aspect=fixed;image=https://cdn4.iconfinder.com/data/icons/48-bubbles/48/18.Pictures-Day-128.png" vertex="1" parent="1">
          <mxGeometry x="4170" y="1970" width="290" height="290" as="geometry" />
        </mxCell>
        <mxCell id="otfIkombBEl5gzPAVcly-31" value="" style="shape=image;html=1;verticalAlign=top;verticalLabelPosition=bottom;labelBackgroundColor=#ffffff;imageAspect=0;aspect=fixed;image=https://cdn4.iconfinder.com/data/icons/48-bubbles/48/18.Pictures-Day-128.png" vertex="1" parent="1">
          <mxGeometry x="4490" y="1970" width="290" height="290" as="geometry" />
        </mxCell>
        <mxCell id="otfIkombBEl5gzPAVcly-32" value="" style="shape=image;html=1;verticalAlign=top;verticalLabelPosition=bottom;labelBackgroundColor=#ffffff;imageAspect=0;aspect=fixed;image=https://cdn4.iconfinder.com/data/icons/48-bubbles/48/18.Pictures-Day-128.png" vertex="1" parent="1">
          <mxGeometry x="4810" y="1970" width="290" height="290" as="geometry" />
        </mxCell>
        <mxCell id="otfIkombBEl5gzPAVcly-36" value="" style="sketch=0;html=1;dashed=0;whitespace=wrap;fillColor=#2875E2;strokeColor=#ffffff;points=[[0.005,0.63,0],[0.1,0.2,0],[0.9,0.2,0],[0.5,0,0],[0.995,0.63,0],[0.72,0.99,0],[0.5,1,0],[0.28,0.99,0]];verticalLabelPosition=bottom;align=center;verticalAlign=top;shape=mxgraph.kubernetes.icon;prIcon=api" vertex="1" parent="1">
          <mxGeometry x="1920" y="60" width="360" height="530" as="geometry" />
        </mxCell>
        <mxCell id="otfIkombBEl5gzPAVcly-42" style="edgeStyle=orthogonalEdgeStyle;rounded=0;orthogonalLoop=1;jettySize=auto;html=1;" edge="1" parent="1" source="otfIkombBEl5gzPAVcly-39" target="otfIkombBEl5gzPAVcly-4">
          <mxGeometry relative="1" as="geometry" />
        </mxCell>
        <mxCell id="otfIkombBEl5gzPAVcly-39" value="/sair/search" style="rounded=1;whiteSpace=wrap;html=1;fontSize=45;" vertex="1" parent="1">
          <mxGeometry x="1630" y="660" width="300" height="80" as="geometry" />
        </mxCell>
        <mxCell id="otfIkombBEl5gzPAVcly-41" value="" style="edgeStyle=orthogonalEdgeStyle;rounded=0;orthogonalLoop=1;jettySize=auto;html=1;" edge="1" parent="1" source="otfIkombBEl5gzPAVcly-40" target="otfIkombBEl5gzPAVcly-39">
          <mxGeometry relative="1" as="geometry" />
        </mxCell>
        <mxCell id="otfIkombBEl5gzPAVcly-40" value="[GET]" style="rounded=1;whiteSpace=wrap;html=1;fontSize=45;fillColor=#d5e8d4;strokeColor=#82b366;" vertex="1" parent="1">
          <mxGeometry x="1390" y="660" width="190" height="80" as="geometry" />
        </mxCell>
        <mxCell id="otfIkombBEl5gzPAVcly-46" value="" style="edgeStyle=orthogonalEdgeStyle;rounded=0;orthogonalLoop=1;jettySize=auto;html=1;" edge="1" parent="1" source="otfIkombBEl5gzPAVcly-43" target="otfIkombBEl5gzPAVcly-45">
          <mxGeometry relative="1" as="geometry" />
        </mxCell>
        <mxCell id="otfIkombBEl5gzPAVcly-43" value="Todos os lugares para sair do banco de dados, no formato JSON, ou apenas os lugares que o usuario solicitou caso selecionado filtro" style="rounded=1;whiteSpace=wrap;html=1;fontSize=45;" vertex="1" parent="1">
          <mxGeometry x="1850" y="870" width="750" height="240" as="geometry" />
        </mxCell>
        <mxCell id="otfIkombBEl5gzPAVcly-45" value="" style="dashed=0;outlineConnect=0;html=1;align=center;labelPosition=center;verticalLabelPosition=bottom;verticalAlign=top;shape=mxgraph.weblogos.json" vertex="1" parent="1">
          <mxGeometry x="1380" y="920" width="129.29" height="140" as="geometry" />
        </mxCell>
        <mxCell id="otfIkombBEl5gzPAVcly-47" value="/?estrelas=1&amp;amp;preco=4" style="rounded=1;whiteSpace=wrap;html=1;fontSize=29;fillColor=#fff2cc;strokeColor=#d6b656;" vertex="1" parent="1">
          <mxGeometry x="2240" y="640" width="350" height="50" as="geometry" />
        </mxCell>
        <mxCell id="otfIkombBEl5gzPAVcly-48" value="querystring" style="rounded=1;whiteSpace=wrap;html=1;fontSize=29;fillColor=#fff2cc;strokeColor=#d6b656;fontStyle=1" vertex="1" parent="1">
          <mxGeometry x="2030" y="640" width="190" height="50" as="geometry" />
        </mxCell>
        <mxCell id="otfIkombBEl5gzPAVcly-49" value="/sair/options" style="rounded=1;whiteSpace=wrap;html=1;fontSize=45;" vertex="1" parent="1">
          <mxGeometry x="1630" y="1300" width="300" height="80" as="geometry" />
        </mxCell>
        <mxCell id="otfIkombBEl5gzPAVcly-50" value="" style="edgeStyle=orthogonalEdgeStyle;rounded=0;orthogonalLoop=1;jettySize=auto;html=1;" edge="1" parent="1" source="otfIkombBEl5gzPAVcly-51" target="otfIkombBEl5gzPAVcly-49">
          <mxGeometry relative="1" as="geometry" />
        </mxCell>
        <mxCell id="otfIkombBEl5gzPAVcly-51" value="[GET]" style="rounded=1;whiteSpace=wrap;html=1;fontSize=45;fillColor=#d5e8d4;strokeColor=#82b366;" vertex="1" parent="1">
          <mxGeometry x="1390" y="1300" width="190" height="80" as="geometry" />
        </mxCell>
        <mxCell id="otfIkombBEl5gzPAVcly-52" value="" style="edgeStyle=orthogonalEdgeStyle;rounded=0;orthogonalLoop=1;jettySize=auto;html=1;" edge="1" parent="1" source="otfIkombBEl5gzPAVcly-53" target="otfIkombBEl5gzPAVcly-54">
          <mxGeometry relative="1" as="geometry" />
        </mxCell>
        <mxCell id="otfIkombBEl5gzPAVcly-53" value="Traz todas as informações que podem ser cadastradas no banco de dados no formato JSON, será utilizada no cadastramento de novos estabelecimentos" style="rounded=1;whiteSpace=wrap;html=1;fontSize=45;" vertex="1" parent="1">
          <mxGeometry x="1850" y="1510" width="750" height="270" as="geometry" />
        </mxCell>
        <mxCell id="otfIkombBEl5gzPAVcly-54" value="" style="dashed=0;outlineConnect=0;html=1;align=center;labelPosition=center;verticalLabelPosition=bottom;verticalAlign=top;shape=mxgraph.weblogos.json" vertex="1" parent="1">
          <mxGeometry x="1390" y="1575" width="129.29" height="140" as="geometry" />
        </mxCell>
        <mxCell id="otfIkombBEl5gzPAVcly-57" style="edgeStyle=orthogonalEdgeStyle;rounded=0;orthogonalLoop=1;jettySize=auto;html=1;entryX=0;entryY=0.5;entryDx=0;entryDy=0;entryPerimeter=0;" edge="1" parent="1" source="otfIkombBEl5gzPAVcly-49" target="otfIkombBEl5gzPAVcly-5">
          <mxGeometry relative="1" as="geometry" />
        </mxCell>
        <mxCell id="otfIkombBEl5gzPAVcly-67" style="edgeStyle=orthogonalEdgeStyle;rounded=0;orthogonalLoop=1;jettySize=auto;html=1;" edge="1" parent="1" source="otfIkombBEl5gzPAVcly-59" target="otfIkombBEl5gzPAVcly-8">
          <mxGeometry relative="1" as="geometry" />
        </mxCell>
        <mxCell id="otfIkombBEl5gzPAVcly-59" value="/sair/photos" style="rounded=1;whiteSpace=wrap;html=1;fontSize=45;" vertex="1" parent="1">
          <mxGeometry x="1630" y="1990" width="300" height="80" as="geometry" />
        </mxCell>
        <mxCell id="otfIkombBEl5gzPAVcly-60" value="" style="edgeStyle=orthogonalEdgeStyle;rounded=0;orthogonalLoop=1;jettySize=auto;html=1;" edge="1" parent="1" source="otfIkombBEl5gzPAVcly-61" target="otfIkombBEl5gzPAVcly-59">
          <mxGeometry relative="1" as="geometry" />
        </mxCell>
        <mxCell id="otfIkombBEl5gzPAVcly-61" value="[GET]" style="rounded=1;whiteSpace=wrap;html=1;fontSize=45;fillColor=#d5e8d4;strokeColor=#82b366;" vertex="1" parent="1">
          <mxGeometry x="1390" y="1990" width="190" height="80" as="geometry" />
        </mxCell>
        <mxCell id="otfIkombBEl5gzPAVcly-62" value="" style="edgeStyle=orthogonalEdgeStyle;rounded=0;orthogonalLoop=1;jettySize=auto;html=1;" edge="1" parent="1" source="otfIkombBEl5gzPAVcly-63" target="otfIkombBEl5gzPAVcly-64">
          <mxGeometry relative="1" as="geometry" />
        </mxCell>
        <mxCell id="otfIkombBEl5gzPAVcly-63" value="Traz todas as fotos cadastradas no banco de dados para aquele &quot;id&quot; de restaurante" style="rounded=1;whiteSpace=wrap;html=1;fontSize=45;" vertex="1" parent="1">
          <mxGeometry x="1850" y="2200" width="750" height="240" as="geometry" />
        </mxCell>
        <mxCell id="otfIkombBEl5gzPAVcly-64" value="" style="dashed=0;outlineConnect=0;html=1;align=center;labelPosition=center;verticalLabelPosition=bottom;verticalAlign=top;shape=mxgraph.weblogos.json" vertex="1" parent="1">
          <mxGeometry x="1380" y="2250" width="129.29" height="140" as="geometry" />
        </mxCell>
        <mxCell id="otfIkombBEl5gzPAVcly-65" value="/?id=923dfdsa312321dsa43t" style="rounded=1;whiteSpace=wrap;html=1;fontSize=29;fillColor=#fff2cc;strokeColor=#d6b656;" vertex="1" parent="1">
          <mxGeometry x="2240" y="1970" width="400" height="50" as="geometry" />
        </mxCell>
        <mxCell id="otfIkombBEl5gzPAVcly-66" value="querystring" style="rounded=1;whiteSpace=wrap;html=1;fontSize=29;fillColor=#fff2cc;strokeColor=#d6b656;fontStyle=1" vertex="1" parent="1">
          <mxGeometry x="2030" y="1970" width="190" height="50" as="geometry" />
        </mxCell>
        <mxCell id="otfIkombBEl5gzPAVcly-70" value="CONSULTA" style="text;html=1;strokeColor=none;fillColor=none;align=center;verticalAlign=middle;whiteSpace=wrap;rounded=0;fontSize=50;fontStyle=1" vertex="1" parent="1">
          <mxGeometry x="1470" y="540" width="60" height="30" as="geometry" />
        </mxCell>
      </root>
    </mxGraphModel>
  </diagram>
</mxfile>
